<svg width="170" height="110" xmlns="http://www.w3.org/2000/svg" class="canvas">
 <defs>
<style type="text/css">@import url('http://fonts.googleapis.com/css?family=Nunito');</style>
</defs>
 <g>
  <title>background</title>
  <rect x="-1" y="-1" width="172" height="112" id="canvas_background" fill="none"/>
 </g>

 <g>
  <title>Layer 1</title>
  <g class="logo-entity" id="symbol" transform="translate(181.99749755859375,0) scale(1.600000023841858) " stroke="null">
   <g class="logo-entity-inner" id="svg_1" stroke="null">
    <g class="[object Object]" transform="translate(0.625,0) scale(0.4000000059604645) " id="svg_2" stroke="null">
     <g id="svg_3" stroke="null">
      <g id="svg_4" stroke="null">
       <polygon points="-153.04959106445312,9.889959335327148 -152.09756469726562,8.238958358764648 -162.72259521484375,2.114957809448242 -184.9915771484375,14.971960067749023 -184.9915771484375,26.94495964050293 -196.6995849609375,33.70496368408203 -196.6995849609375,59.4189567565918 -184.9915771484375,66.178955078125 -184.9915771484375,76.59095764160156 -162.7205810546875,89.44895935058594 -151.1436004638672,82.75196838378906 -151.1436004638672,52.778961181640625 -151.18157958984375,45.782958984375 -151.1436004638672,40.19295120239258 -151.1436004638672,8.78895378112793 -152.09756469726562,8.238958358764648 -153.04959106445312,9.889959335327148 -154.95556640625,9.889959335327148 -154.95556640625,40.17995071411133 -154.95556640625,40.16695785522461 -154.99256896972656,45.77696228027344 -154.95556640625,52.80796432495117 -154.95556640625,80.55296325683594 -162.72259521484375,85.04696655273438 -181.18060302734375,74.38995361328125 -181.18060302734375,63.97795104980469 -192.8875732421875,57.21894836425781 -192.8875732421875,35.90496063232422 -181.18060302734375,29.14595603942871 -181.18060302734375,17.172956466674805 -162.7205810546875,6.514959335327148 -154.0015869140625,11.540960311889648 -153.04959106445312,9.889959335327148 -154.95556640625,9.889959335327148 " fill="#ffffff" id="svg_5" stroke="null"/>
       <polyline points="-184.00759887695312,29.71295928955078 -177.5435791015625,33.28595733642578 -175.6995849609375,29.94995880126953 -182.16358947753906,26.377958297729492 " fill="#ffffff" id="svg_6" stroke="null"/>
       <ellipse cx="-176.763588" cy="31.539958" rx="2.866" ry="2.866" fill="#ffffff" id="svg_7" stroke="null"/>
       <path d="m-178.33459,34.38196c-1.567,-0.866 -2.137,-2.84601 -1.271,-4.413c0.866,-1.567 2.846,-2.137 4.413,-1.271c1.567,0.866 2.137,2.846 1.271,4.413c-0.866,1.566 -2.846,2.137 -4.413,1.271c-1.566,-0.866 1.567,0.866 0,0zm2.773,-5.017c-1.199,-0.663 -2.714,-0.227 -3.377,0.973s-0.227,2.714 0.973,3.377c1.2,0.663 2.714,0.227 3.377,-0.973c0.663,-1.2 0.227,-2.714 -0.973,-3.377c-1.199,-0.663 1.2,0.663 0,0z" fill="#ffffff" id="svg_8" stroke="null"/>
       <polyline points="-182.26258850097656,66.79695129394531 -175.88058471679688,63.739959716796875 -177.52658081054688,60.30296325683594 -183.90960693359375,63.359954833984375 " fill="#ffffff" id="svg_9" stroke="null"/>
       <ellipse cx="-176.849588" cy="62.090958" rx="2.866" ry="2.866" fill="#ffffff" id="svg_10" stroke="null"/>
       <path d="m-175.44759,65.01995c-1.615,0.773 -3.558,0.089 -4.331,-1.526c-0.773,-1.615 -0.089,-3.558 1.526,-4.331c1.615,-0.773 3.558,-0.089 4.331,1.526c0.774,1.614 0.089,3.557 -1.526,4.331c-1.614,0.773 1.615,-0.774 0,0zm-2.476,-5.17c-1.236,0.592 -1.76,2.079 -1.167,3.314c0.592,1.236 2.079,1.76 3.314,1.167c1.236,-0.592 1.76,-2.079 1.167,-3.315c-0.591,-1.234 -2.078,-1.758 -3.314,-1.166c-1.236,0.593 1.236,-0.592 0,0z" fill="#ffffff" id="svg_11" stroke="null"/>
       <polygon points="-169.9705810546875,22.843961715698242 -166.91258239746094,25.201955795288086 -166.91258239746094,34.82695770263672 -175.2375946044922,40.41995620727539 -175.2375946044922,54.37196350097656 -166.91258239746094,58.14495849609375 -166.91258239746094,68.07096862792969 -170.34158325195312,71.35795593261719 -167.70458984375,74.10896301269531 -163.10060119628906,69.69696044921875 -163.10060119628906,55.68696594238281 -171.42660522460938,51.914947509765625 -171.42660522460938,42.45095443725586 -163.10060119628906,36.85795593261719 -163.10060119628906,23.326955795288086 -167.64358520507812,19.8249568939209 -169.9705810546875,22.843961715698242 " fill="#ffffff" id="svg_12" stroke="null"/>
       <ellipse cx="-168.678588" cy="21.433958" rx="2.866" ry="2.866" fill="#ffffff" id="svg_13" stroke="null"/>
       <path d="m-170.66159,24.00595c1.418,1.093 3.461,0.829 4.554,-0.589c1.093,-1.41799 0.829,-3.46099 -0.589,-4.554c-1.418,-1.093 -3.461,-0.829 -4.554,0.589s-0.829,3.46 0.589,4.554c1.418,1.092 -1.418,-1.094 0,0zm3.5,-4.54c1.085,0.837 1.288,2.4 0.451,3.485c-0.837,1.085 -2.4,1.288 -3.485,0.451c-1.085,-0.837 -1.288,-2.39999 -0.451,-3.485c0.836,-1.08599 2.399,-1.288 3.485,-0.451c1.085,0.836 -1.086,-0.837 0,0z" fill="#ffffff" id="svg_14" stroke="null"/>
       <ellipse cx="-168.906588" cy="72.620958" rx="2.866" ry="2.866" fill="#ffffff" id="svg_15" stroke="null"/>
       <path d="m-171.15259,70.27695c1.293,-1.239 3.352,-1.19499 4.591,0.098c1.239,1.29301 1.195,3.35201 -0.098,4.591c-1.293,1.239 -3.352,1.195 -4.591,-0.098c-1.239,-1.293 -1.195,-3.352 0.098,-4.591c1.292,-1.239 -1.293,1.23901 0,0zm3.966,4.13801c0.989,-0.948 1.023,-2.524 0.075,-3.51301c-0.948,-0.989 -2.524,-1.02299 -3.513,-0.075c-0.99,0.948 -1.023,2.524 -0.075,3.51301c0.948,0.98999 2.523,1.02299 3.513,0.075c0.989,-0.948 -0.99,0.94799 0,0z" fill="#ffffff" id="svg_16" stroke="null"/>
       <polyline points="-194.7935791015625,49.06495666503906 -187.4735870361328,49.06495666503906 -187.4735870361328,45.25395965576172 -194.7935791015625,45.25395965576172 " fill="#ffffff" id="svg_17" stroke="null"/>
       <circle cx="-187.636588" cy="47.159958" r="2.866" fill="#ffffff" id="svg_18" stroke="null"/>
       <path d="m-187.63659,50.40696c-1.79,0 -3.247,-1.457 -3.247,-3.247c0,-1.79 1.457,-3.247 3.247,-3.247c1.79,0 3.247,1.457 3.247,3.247c0,1.79 -1.456,3.247 -3.247,3.247c-1.79,0 1.791,0 0,0zm0,-5.732c-1.37,0 -2.485,1.11399 -2.485,2.485c0,1.36999 1.114,2.485 2.485,2.485c1.37,0 2.485,-1.114 2.485,-2.485c0,-1.37101 -1.114,-2.485 -2.485,-2.485c-1.37,0 1.371,0 0,0z" fill="#ffffff" id="svg_19" stroke="null"/>
       <polyline points="-160.48858642578125,49.06495666503906 -153.1685791015625,49.06495666503906 -153.1685791015625,45.25395965576172 -160.48858642578125,45.25395965576172 " fill="#ffffff" id="svg_20" stroke="null"/>
       <circle cx="-160.325588" cy="47.159958" r="2.866" fill="#ffffff" id="svg_21" stroke="null"/>
       <path d="m-160.32559,50.40696c1.79,0 3.247,-1.457 3.247,-3.247c0,-1.79 -1.457,-3.247 -3.247,-3.247c-1.79,0 -3.247,1.457 -3.247,3.247c0,1.79 1.456,3.247 3.247,3.247c1.79,0 -1.791,0 0,0zm0,-5.732c1.37,0 2.485,1.11399 2.485,2.485c0,1.36999 -1.114,2.485 -2.485,2.485c-1.37,0 -2.485,-1.114 -2.485,-2.485c0,-1.37101 1.114,-2.485 2.485,-2.485c1.37,0 -1.371,0 0,0z" fill="#ffffff" id="svg_22" stroke="null"/>
       <polygon points="-153.04959106445312,9.889959335327148 -152.09756469726562,11.540960311889648 -143.37857055664062,6.514959335327148 -124.91859436035156,17.172956466674805 -124.91859436035156,29.14595603942871 -113.21157836914062,35.90496063232422 -113.21157836914062,57.21894836425781 -124.91859436035156,63.97795104980469 -124.91859436035156,74.38995361328125 -143.3765869140625,85.04696655273438 -151.1436004638672,80.55296325683594 -151.1436004638672,52.79795455932617 -151.10556030273438,45.77496337890625 -151.1436004638672,40.16695785522461 -151.1436004638672,40.17995071411133 -151.1436004638672,9.889959335327148 -153.04959106445312,9.889959335327148 -152.09756469726562,11.540960311889648 -153.04959106445312,9.889959335327148 -154.95556640625,9.889959335327148 -154.95556640625,40.19595718383789 -154.9176025390625,45.78495407104492 -154.95556640625,52.7879638671875 -154.95556640625,82.75196838378906 -143.37857055664062,89.44895935058594 -121.10757446289062,76.59095764160156 -121.10757446289062,66.178955078125 -109.39959716796875,59.41994857788086 -109.39959716796875,33.70496368408203 -121.10757446289062,26.94495964050293 -121.10757446289062,14.971960067749023 -143.3765869140625,2.114957809448242 -154.95556640625,8.78895378112793 -154.95556640625,9.889959335327148 " fill="#ffffff" id="svg_23" stroke="null"/>
       <polyline points="-123.93458557128906,26.377958297729492 -130.39959716796875,29.94995880126953 -128.55557250976562,33.28595733642578 -122.09158325195312,29.71295928955078 " fill="#ffffff" id="svg_24" stroke="null"/>
       <ellipse cx="-129.335588" cy="31.539958" rx="2.866" ry="2.866" fill="#ffffff" id="svg_25" stroke="null"/>
       <path d="m-130.90659,28.69795c1.567,-0.866 3.547,-0.296 4.413,1.271c0.866,1.567 0.296,3.547 -1.271,4.41301c-1.567,0.866 -3.547,0.296 -4.413,-1.271c-0.866,-1.568 -0.296,-3.547 1.271,-4.413c1.567,-0.866 -1.567,0.866 0,0l0,-0.00001zm2.773,5.016c1.199,-0.66299 1.636,-2.177 0.973,-3.377s-2.177,-1.636 -3.377,-0.973c-1.2,0.663 -1.636,2.177 -0.973,3.377c0.663,1.20001 2.178,1.63601 3.377,0.973c1.199,-0.662 -1.199,0.663 0,0z" fill="#ffffff" id="svg_26" stroke="null"/>
       <polyline points="-122.1895751953125,63.359954833984375 -128.57257080078125,60.30296325683594 -130.21859741210938,63.739959716796875 -123.83656311035156,66.79695129394531 " fill="#ffffff" id="svg_27" stroke="null"/>
       <ellipse cx="-129.248588" cy="62.090958" rx="2.866" ry="2.866" fill="#ffffff" id="svg_28" stroke="null"/>
       <path d="m-127.84659,59.16296c1.615,0.773 2.299,2.717 1.526,4.33099c-0.773,1.615 -2.717,2.29901 -4.331,1.526c-1.615,-0.773 -2.299,-2.717 -1.526,-4.331c0.774,-1.615 2.717,-2.299 4.331,-1.526c1.615,0.773 -1.614,-0.773 0,0l0,0.00001zm-2.476,5.169c1.236,0.592 2.722,0.068 3.314,-1.167c0.592,-1.236 0.068,-2.722 -1.167,-3.314c-1.236,-0.592 -2.722,-0.069 -3.315,1.167c-0.592,1.236 -0.068,2.722 1.168,3.314c1.236,0.592 -1.236,-0.592 0,0z" fill="#ffffff" id="svg_29" stroke="null"/>
       <polygon points="-138.45558166503906,19.8249568939209 -142.99856567382812,23.326955795288086 -142.99856567382812,36.85795593261719 -134.6725616455078,42.45095443725586 -134.6725616455078,51.914947509765625 -142.99856567382812,55.68696594238281 -142.99856567382812,69.69696044921875 -138.39459228515625,74.10896301269531 -135.75656127929688,71.35795593261719 -139.1865997314453,68.07096862792969 -139.1865997314453,58.14495849609375 -130.861572265625,54.37196350097656 -130.861572265625,40.41995620727539 -139.1865997314453,34.82695770263672 -139.1865997314453,25.201955795288086 -136.12857055664062,22.843961715698242 -138.45458984375,19.8249568939209 " fill="#ffffff" id="svg_30" stroke="null"/>
       <ellipse cx="-137.420588" cy="21.433958" rx="2.866" ry="2.866" fill="#ffffff" id="svg_31" stroke="null"/>
       <path d="m-139.40259,18.86196c-1.418,1.093 -1.682,3.13599 -0.589,4.554c1.093,1.418 3.136,1.682 4.554,0.589c1.418,-1.093 1.682,-3.136 0.589,-4.55401c-1.093,-1.418 -3.136,-1.68199 -4.554,-0.58899c-1.418,1.093 1.418,-1.093 0,0zm3.499,4.53999c-1.085,0.837 -2.648,0.634 -3.485,-0.451c-0.837,-1.085 -0.634,-2.648 0.451,-3.485c1.085,-0.837 2.648,-0.634 3.485,0.451c0.837,1.08501 0.635,2.648 -0.451,3.485c-1.085,0.836 1.086,-0.837 0,0z" fill="#ffffff" id="svg_32" stroke="null"/>
       <ellipse cx="-137.192588" cy="72.620958" rx="2.866" ry="2.866" fill="#ffffff" id="svg_33" stroke="null"/>
       <path d="m-139.43959,74.96596c-1.293,-1.239 -1.336,-3.298 -0.098,-4.591c1.239,-1.293 3.298,-1.336 4.591,-0.098c1.293,1.239 1.336,3.299 0.098,4.591c-1.239,1.293 -3.298,1.336 -4.591,0.098c-1.293,-1.239 1.293,1.238 0,0zm3.966,-4.139c-0.989,-0.948 -2.565,-0.915 -3.513,0.075c-0.948,0.989 -0.915,2.565 0.075,3.513c0.99,0.948 2.565,0.915 3.513,-0.075c0.948,-0.989 0.914,-2.565 -0.075,-3.513c-0.989,-0.948 0.989,0.948 0,0z" fill="#ffffff" id="svg_34" stroke="null"/>
       <polyline points="-111.30557250976562,45.25395965576172 -118.62457275390625,45.25395965576172 -118.62457275390625,49.06495666503906 -111.30557250976562,49.06495666503906 " fill="#ffffff" id="svg_35" stroke="null"/>
       <circle cx="-118.462588" cy="47.159958" r="2.866" fill="#ffffff" id="svg_36" stroke="null"/>
       <path d="m-118.46259,43.91296c1.79,0 3.247,1.457 3.247,3.247c0,1.79 -1.457,3.247 -3.247,3.247c-1.79,0 -3.247,-1.457 -3.247,-3.247c0,-1.791 1.457,-3.247 3.247,-3.247c1.79,0 -1.79,0 0,0zm0,5.731c1.37,0 2.485,-1.114 2.485,-2.485c0,-1.37 -1.114,-2.485 -2.485,-2.485c-1.37,0 -2.485,1.114 -2.485,2.485c0,1.371 1.114,2.485 2.485,2.485c1.37,0 -1.371,0 0,0z" fill="#ffffff" id="svg_37" stroke="null"/>
       <polyline points="-145.610595703125,45.25395965576172 -152.93057250976562,45.25395965576172 -152.93057250976562,49.06495666503906 -145.610595703125,49.06495666503906 " fill="#ffffff" id="svg_38" stroke="null"/>
       <circle cx="-145.773588" cy="47.159958" r="2.866" fill="#ffffff" id="svg_39" stroke="null"/>
       <path d="m-145.77359,43.91296c-1.79,0 -3.247,1.457 -3.247,3.247c0,1.79 1.457,3.247 3.247,3.247s3.247,-1.457 3.247,-3.247c0,-1.791 -1.456,-3.247 -3.247,-3.247s1.791,0 0,0zm0,5.731c-1.37,0 -2.485,-1.114 -2.485,-2.485c0,-1.37 1.114,-2.485 2.485,-2.485s2.485,1.114 2.485,2.485c0,1.371 -1.114,2.485 -2.485,2.485s1.371,0 0,0z" fill="#ffffff" id="svg_40" stroke="null"/>
      </g>
     </g>
    </g>
   </g>
  </g>
  <g class="logo-entity" id="title" transform="translate(67,160) scale(0.30000001192092896) ">
   <g class="logo-entity-inner" id="svg_41">
    <text class="[object Object]" font-size="80px" fill="#ffffff" font-family="Nunito" id="svg_42" y="-242" x="-110">Sentimech</text>
   </g>
  </g>
  <g class="logo-entity" id="subtitle" transform="translate(0,250.00003051757812) scale(0.30000001192092896) ">
   <g class="logo-entity-inner" id="svg_43">
    <text class="[object Object]" font-size="25px" fill="#ffffff" font-family="Nunito" id="svg_44" y="-470" x="55">INTELLIGENT ENGINEERING SERVICES</text>
   </g>
  </g>
  <path fill="#ffffff" stroke-width="0" stroke-opacity="null" id="svg_47"/>
  <polyline fill="none" stroke-width="0" stroke-opacity="null" points="228.75,61 228.75,61 " id="svg_49" stroke-linecap="round"/>
 </g>
</svg>
