<svg width="750" height="165" xmlns="http://www.w3.org/2000/svg" class="canvas">
 <g>
  <title>background</title>
  <rect x="-1" y="-1" width="752" height="167" id="canvas_background" fill="none"/>
 </g>

 <g>
  <title>Layer 1</title>
  <g class="logo-entity" id="symbol" transform="translate(181.99749755859375,0) scale(1.600000023841858) ">
   <g class="logo-entity-inner" id="svg_1">
    <g class="[object Object]" transform="translate(0.625,0) scale(1.1450296640396118) " id="svg_2">
     <g id="svg_3">
      <g id="svg_4">
       <polygon points="-54.808689117431655,8.956609725952148 -53.856662750244155,7.305608749389648 -64.48169708251955,1.1816082000732422 -86.75067138671876,14.038610458374023 -86.75067138671876,26.01161003112793 -98.4586868286133,32.77161407470703 -98.4586868286133,58.4856071472168 -86.75067138671876,65.24560546875 -86.75067138671876,75.65760803222656 -64.47967529296876,88.51560974121094 -52.90269851684572,81.81861877441406 -52.90269851684572,51.845611572265625 -52.94067764282228,44.849609375 -52.90269851684572,39.25960159301758 -52.90269851684572,7.85560417175293 -53.856662750244155,7.305608749389648 -54.808689117431655,8.956609725952148 -56.71466445922853,8.956609725952148 -56.71466445922853,39.24660110473633 -56.71466445922853,39.23360824584961 -56.75166702270509,44.84361267089844 -56.71466445922853,51.87461471557617 -56.71466445922853,79.61961364746094 -64.48169708251955,84.11361694335938 -82.93969726562501,73.45660400390625 -82.93969726562501,63.04460144042969 -94.64666748046876,56.28559875488281 -94.64666748046876,34.97161102294922 -82.93969726562501,28.21260643005371 -82.93969726562501,16.239606857299805 -64.47967529296876,5.581609725952148 -55.76068496704103,10.607610702514648 -54.808689117431655,8.956609725952148 -56.71466445922853,8.956609725952148 " fill="#ffffff" id="svg_5"/>
       <polyline points="-85.76670074462892,28.77960968017578 -79.30267333984376,32.35260772705078 -77.45867919921876,29.01660919189453 -83.92268371582033,25.444608688354492 " fill="#ffffff" id="svg_6"/>
       <ellipse cx="-78.522682" cy="30.606608" rx="2.866" ry="2.866" fill="#ffffff" id="svg_7"/>
       <path d="m-80.093686,33.448613c-1.567,-0.866 -2.137,-2.84601 -1.271,-4.413c0.866,-1.567 2.846,-2.137 4.413,-1.271c1.567,0.866 2.137,2.846 1.271,4.413c-0.866,1.566 -2.846,2.137 -4.413,1.271c-1.566,-0.866 1.567,0.866 0,0zm2.773,-5.017c-1.199,-0.663 -2.714,-0.227 -3.377,0.973s-0.227,2.714 0.973,3.377c1.2,0.663 2.714,0.227 3.377,-0.973c0.663,-1.2 0.227,-2.714 -0.973,-3.377c-1.199,-0.663 1.2,0.663 0,0z" fill="#ffffff" id="svg_8"/>
       <polyline points="-84.02168273925783,65.86360168457031 -77.63967895507814,62.806610107421875 -79.28567504882814,59.36961364746094 -85.66870117187501,62.426605224609375 " fill="#ffffff" id="svg_9"/>
       <ellipse cx="-78.608682" cy="61.157608" rx="2.866" ry="2.866" fill="#ffffff" id="svg_10"/>
       <path d="m-77.206686,64.086603c-1.615,0.773 -3.558,0.089 -4.331,-1.526c-0.773,-1.615 -0.089,-3.558 1.526,-4.331c1.615,-0.773 3.558,-0.089 4.331,1.526c0.774,1.614 0.089,3.557 -1.526,4.331c-1.614,0.773 1.615,-0.774 0,0zm-2.476,-5.17c-1.236,0.592 -1.76,2.079 -1.167,3.314c0.592,1.236 2.079,1.76 3.314,1.167c1.236,-0.592 1.76,-2.079 1.167,-3.315c-0.591,-1.234 -2.078,-1.758 -3.314,-1.166c-1.236,0.593 1.236,-0.592 0,0z" fill="#ffffff" id="svg_11"/>
       <polygon points="-71.7296829223633,21.910612106323242 -68.67168426513673,24.268606185913086 -68.67168426513673,33.89360809326172 -76.99668884277345,39.48660659790039 -76.99668884277345,53.43861389160156 -68.67168426513673,57.21160888671875 -68.67168426513673,67.13761901855469 -72.10067749023439,70.42460632324219 -69.46368408203126,73.17561340332031 -64.85969543457033,68.76361083984375 -64.85969543457033,54.75361633300781 -73.18569946289064,50.981597900390625 -73.18569946289064,41.51760482788086 -64.85969543457033,35.92460632324219 -64.85969543457033,22.393606185913086 -69.40267944335939,18.8916072845459 -71.7296829223633,21.910612106323242 " fill="#ffffff" id="svg_12"/>
       <ellipse cx="-70.437682" cy="20.500608" rx="2.866" ry="2.866" fill="#ffffff" id="svg_13"/>
       <path d="m-72.420686,23.072603c1.418,1.093 3.461,0.829 4.554,-0.589c1.093,-1.41799 0.829,-3.46099 -0.589,-4.554c-1.418,-1.093 -3.461,-0.829 -4.554,0.589s-0.829,3.46 0.589,4.554c1.418,1.092 -1.418,-1.094 0,0zm3.5,-4.54c1.085,0.837 1.288,2.4 0.451,3.485c-0.837,1.085 -2.4,1.288 -3.485,0.451c-1.085,-0.837 -1.288,-2.39999 -0.451,-3.485c0.836,-1.08599 2.399,-1.288 3.485,-0.451c1.085,0.836 -1.086,-0.837 0,0z" fill="#ffffff" id="svg_14"/>
       <ellipse cx="-70.665682" cy="71.687608" rx="2.866" ry="2.866" fill="#ffffff" id="svg_15"/>
       <path d="m-72.911686,69.343603c1.293,-1.239 3.352,-1.19499 4.591,0.098c1.239,1.29301 1.195,3.35201 -0.098,4.591c-1.293,1.239 -3.352,1.195 -4.591,-0.098c-1.239,-1.293 -1.195,-3.352 0.098,-4.591c1.292,-1.239 -1.293,1.23901 0,0zm3.966,4.13801c0.989,-0.948 1.023,-2.524 0.075,-3.51301c-0.948,-0.989 -2.524,-1.02299 -3.513,-0.075c-0.99,0.948 -1.023,2.524 -0.075,3.51301c0.948,0.98999 2.523,1.02299 3.513,0.075c0.989,-0.948 -0.99,0.94799 0,0z" fill="#ffffff" id="svg_16"/>
       <polyline points="-96.55267333984376,48.13160705566406 -89.23268890380861,48.13160705566406 -89.23268890380861,44.32061004638672 -96.55267333984376,44.32061004638672 " fill="#ffffff" id="svg_17"/>
       <circle cx="-89.395682" cy="46.226608" r="2.866" fill="#ffffff" id="svg_18"/>
       <path d="m-89.395686,49.473613c-1.79,0 -3.247,-1.457 -3.247,-3.247c0,-1.79 1.457,-3.247 3.247,-3.247c1.79,0 3.247,1.457 3.247,3.247c0,1.79 -1.456,3.247 -3.247,3.247c-1.79,0 1.791,0 0,0zm0,-5.732c-1.37,0 -2.485,1.11399 -2.485,2.485c0,1.36999 1.114,2.485 2.485,2.485c1.37,0 2.485,-1.114 2.485,-2.485c0,-1.37101 -1.114,-2.485 -2.485,-2.485c-1.37,0 1.371,0 0,0z" fill="#ffffff" id="svg_19"/>
       <polyline points="-62.24768447875978,48.13160705566406 -54.92767715454103,48.13160705566406 -54.92767715454103,44.32061004638672 -62.24768447875978,44.32061004638672 " fill="#ffffff" id="svg_20"/>
       <circle cx="-62.084682" cy="46.226608" r="2.866" fill="#ffffff" id="svg_21"/>
       <path d="m-62.084686,49.473613c1.79,0 3.247,-1.457 3.247,-3.247c0,-1.79 -1.457,-3.247 -3.247,-3.247c-1.79,0 -3.247,1.457 -3.247,3.247c0,1.79 1.456,3.247 3.247,3.247c1.79,0 -1.791,0 0,0zm0,-5.732c1.37,0 2.485,1.11399 2.485,2.485c0,1.36999 -1.114,2.485 -2.485,2.485c-1.37,0 -2.485,-1.114 -2.485,-2.485c0,-1.37101 1.114,-2.485 2.485,-2.485c1.37,0 -1.371,0 0,0z" fill="#ffffff" id="svg_22"/>
       <polygon points="-54.808689117431655,8.956609725952148 -53.856662750244155,10.607610702514648 -45.13766479492189,5.581609725952148 -26.677680969238295,16.239606857299805 -26.677680969238295,28.21260643005371 -14.970672607421887,34.97161102294922 -14.970672607421887,56.28559875488281 -26.677680969238295,63.04460144042969 -26.677680969238295,73.45660400390625 -45.135681152343764,84.11361694335938 -52.90269851684572,79.61961364746094 -52.90269851684572,51.86460494995117 -52.864658355712905,44.84161376953125 -52.90269851684572,39.23360824584961 -52.90269851684572,39.24660110473633 -52.90269851684572,8.956609725952148 -54.808689117431655,8.956609725952148 -53.856662750244155,10.607610702514648 -54.808689117431655,8.956609725952148 -56.71466445922853,8.956609725952148 -56.71466445922853,39.26260757446289 -56.67670059204103,44.85160446166992 -56.71466445922853,51.8546142578125 -56.71466445922853,81.81861877441406 -45.13766479492189,88.51560974121094 -22.86666870117189,75.65760803222656 -22.86666870117189,65.24560546875 -11.158691406250012,58.48659896850586 -11.158691406250012,32.77161407470703 -22.86666870117189,26.01161003112793 -22.86666870117189,14.038610458374023 -45.135681152343764,1.1816082000732422 -56.71466445922853,7.85560417175293 -56.71466445922853,8.956609725952148 " fill="#ffffff" id="svg_23"/>
       <polyline points="-25.693687438964858,25.444608688354492 -32.158691406250014,29.01660919189453 -30.31466674804689,32.35260772705078 -23.85067749023439,28.77960968017578 " fill="#ffffff" id="svg_24"/>
       <ellipse cx="-31.094682" cy="30.606608" rx="2.866" ry="2.866" fill="#ffffff" id="svg_25"/>
       <path d="m-32.665686,27.764603c1.567,-0.866 3.547,-0.296 4.413,1.271c0.866,1.567 0.296,3.547 -1.271,4.41301c-1.567,0.866 -3.547,0.296 -4.413,-1.271c-0.866,-1.568 -0.296,-3.547 1.271,-4.413c1.567,-0.866 -1.567,0.866 0,0l0,-0.00001zm2.773,5.016c1.199,-0.66299 1.636,-2.177 0.973,-3.377s-2.177,-1.636 -3.377,-0.973c-1.2,0.663 -1.636,2.177 -0.973,3.377c0.663,1.20001 2.178,1.63601 3.377,0.973c1.199,-0.662 -1.199,0.663 0,0z" fill="#ffffff" id="svg_26"/>
       <polyline points="-23.948669433593764,62.426605224609375 -30.331665039062514,59.36961364746094 -31.97769165039064,62.806610107421875 -25.595657348632827,65.86360168457031 " fill="#ffffff" id="svg_27"/>
       <ellipse cx="-31.007682" cy="61.157608" rx="2.866" ry="2.866" fill="#ffffff" id="svg_28"/>
       <path d="m-29.605686,58.229613c1.615,0.773 2.299,2.717 1.526,4.33099c-0.773,1.615 -2.717,2.29901 -4.331,1.526c-1.615,-0.773 -2.299,-2.717 -1.526,-4.331c0.774,-1.615 2.717,-2.299 4.331,-1.526c1.615,0.773 -1.614,-0.773 0,0l0,0.00001zm-2.476,5.169c1.236,0.592 2.722,0.068 3.314,-1.167c0.592,-1.236 0.068,-2.722 -1.167,-3.314c-1.236,-0.592 -2.722,-0.069 -3.315,1.167c-0.592,1.236 -0.068,2.722 1.168,3.314c1.236,0.592 -1.236,-0.592 0,0z" fill="#ffffff" id="svg_29"/>
       <polygon points="-40.21467590332033,18.8916072845459 -44.75765991210939,22.393606185913086 -44.75765991210939,35.92460632324219 -36.43165588378908,41.51760482788086 -36.43165588378908,50.981597900390625 -44.75765991210939,54.75361633300781 -44.75765991210939,68.76361083984375 -40.153686523437514,73.17561340332031 -37.51565551757814,70.42460632324219 -40.945686340332045,67.13761901855469 -40.945686340332045,57.21160888671875 -32.620666503906264,53.43861389160156 -32.620666503906264,39.48660659790039 -40.945686340332045,33.89360809326172 -40.945686340332045,24.268606185913086 -37.88766479492189,21.910612106323242 -40.213684082031264,18.8916072845459 " fill="#ffffff" id="svg_30"/>
       <ellipse cx="-39.179682" cy="20.500608" rx="2.866" ry="2.866" fill="#ffffff" id="svg_31"/>
       <path d="m-41.161686,17.928613c-1.418,1.093 -1.682,3.13599 -0.589,4.554c1.093,1.418 3.136,1.682 4.554,0.589c1.418,-1.093 1.682,-3.136 0.589,-4.55401c-1.093,-1.418 -3.136,-1.68199 -4.554,-0.58899c-1.418,1.093 1.418,-1.093 0,0zm3.499,4.53999c-1.085,0.837 -2.648,0.634 -3.485,-0.451c-0.837,-1.085 -0.634,-2.648 0.451,-3.485c1.085,-0.837 2.648,-0.634 3.485,0.451c0.837,1.08501 0.635,2.648 -0.451,3.485c-1.085,0.836 1.086,-0.837 0,0z" fill="#ffffff" id="svg_32"/>
       <ellipse cx="-38.951682" cy="71.687608" rx="2.866" ry="2.866" fill="#ffffff" id="svg_33"/>
       <path d="m-41.198686,74.032613c-1.293,-1.239 -1.336,-3.298 -0.098,-4.591c1.239,-1.293 3.298,-1.336 4.591,-0.098c1.293,1.239 1.336,3.299 0.098,4.591c-1.239,1.293 -3.298,1.336 -4.591,0.098c-1.293,-1.239 1.293,1.238 0,0zm3.966,-4.139c-0.989,-0.948 -2.565,-0.915 -3.513,0.075c-0.948,0.989 -0.915,2.565 0.075,3.513c0.99,0.948 2.565,0.915 3.513,-0.075c0.948,-0.989 0.914,-2.565 -0.075,-3.513c-0.989,-0.948 0.989,0.948 0,0z" fill="#ffffff" id="svg_34"/>
       <polyline points="-13.064666748046887,44.32061004638672 -20.383666992187514,44.32061004638672 -20.383666992187514,48.13160705566406 -13.064666748046887,48.13160705566406 " fill="#ffffff" id="svg_35"/>
       <circle cx="-20.221682" cy="46.226608" r="2.866" fill="#ffffff" id="svg_36"/>
       <path d="m-20.221686,42.979613c1.79,0 3.247,1.457 3.247,3.247c0,1.79 -1.457,3.247 -3.247,3.247c-1.79,0 -3.247,-1.457 -3.247,-3.247c0,-1.791 1.457,-3.247 3.247,-3.247c1.79,0 -1.79,0 0,0zm0,5.731c1.37,0 2.485,-1.114 2.485,-2.485c0,-1.37 -1.114,-2.485 -2.485,-2.485c-1.37,0 -2.485,1.114 -2.485,2.485c0,1.371 1.114,2.485 2.485,2.485c1.37,0 -1.371,0 0,0z" fill="#ffffff" id="svg_37"/>
       <polyline points="-47.369689941406264,44.32061004638672 -54.689670562744155,44.32061004638672 -54.689670562744155,48.13160705566406 -47.369689941406264,48.13160705566406 " fill="#ffffff" id="svg_38"/>
       <circle cx="-47.532682" cy="46.226608" r="2.866" fill="#ffffff" id="svg_39"/>
       <path d="m-47.532686,42.979613c-1.79,0 -3.247,1.457 -3.247,3.247c0,1.79 1.457,3.247 3.247,3.247s3.247,-1.457 3.247,-3.247c0,-1.791 -1.456,-3.247 -3.247,-3.247s1.791,0 0,0zm0,5.731c-1.37,0 -2.485,-1.114 -2.485,-2.485c0,-1.37 1.114,-2.485 2.485,-2.485s2.485,1.114 2.485,2.485c0,1.371 -1.114,2.485 -2.485,2.485s1.371,0 0,0z" fill="#ffffff" id="svg_40"/>
      </g>
     </g>
    </g>
   </g>
  </g>
  <g class="logo-entity" id="title" transform="translate(67,160) scale(1) ">
   <g class="logo-entity-inner" id="svg_41">
    <text class="[object Object]" font-size="80px" fill="#ffffff" font-family="nunito" id="svg_42" y="-78" x="194.953125">SentiMech</text>
   </g>
  </g>
  <g class="logo-entity" id="subtitle" transform="translate(0,250.00003051757812) scale(1) ">
   <g class="logo-entity-inner" id="svg_43">
    <text class="[object Object]" font-size="30px" fill="#ffffff" font-family="roboto" id="svg_44" y="-111" x="194">INTELLIGENT ENGINEERING SERVICES</text>
   </g>
  </g>
  <path fill="#ffffff" stroke-width="0" stroke-opacity="null" fill-opacity="null" id="svg_47"/>
  <polyline fill="none" stroke-width="0" stroke-opacity="null" fill-opacity="null" points="228.75,61 228.75,61 " id="svg_49" />
 </g>
</svg>
